# xmcd CD database file
#
# Track frame offsets:
#	151
#	42577
#	81873
#	137918
#	187651
#	222911
#	277791
#
# Disc length: 4304 seconds
#
# Revision: 0
# Processed by: cddbd v1.5.2PL0 Copyright (c) Steve Scherf et al.
# Submitted via: CDex 1.51
#
DISCID=5d10ce07
DTITLE=Sonny Rollins - Roadshows Vol1
DYEAR=2008
DGENRE=Jazz
TTITLE0=Best Wishes
TTITLE1=More Than You Know
TTITLE2=Blossom
TTITLE3=Easy Living
TTITLE4=Tenor Madness
TTITLE5=Nice Lady
TTITLE6=Some Enchanted Evening
EXTD=YEAR: 2008
EXTT0=
EXTT1=
EXTT2=
EXTT3=
EXTT4=
EXTT5=
EXTT6=
PLAYORDER=
